<svg xmlns="http://www.w3.org/2000/svg" viewBox="0 0 531.22 517.87"><defs><style>.cls-1{fill:#ef4057;}</style></defs><g id="Layer_2" data-name="Layer 2"><g id="R"><path class="cls-1" d="M531.2,59.14c0-.31,0-.62,0-.93A59.85,59.85,0,0,0,471.11,0l-1,0c-.49,0-1,0-1.46,0H27.25A27.25,27.25,0,0,0,0,27.27V458.19c0,.19,0,.36,0,.55s0,.61,0,.92a59.85,59.85,0,0,0,60.1,58.2c.34,0,.67,0,1,0s1,0,1.45,0H504a27.26,27.26,0,0,0,27.25-27.26V59.68C531.22,59.5,531.2,59.32,531.2,59.14ZM408.82,119.7V313.43l-198-193.73ZM122.4,398.18V204.44l198,193.74Z"/></g></g></svg>